# xmcd CD database file
#
# Track frame offsets:
#	150
#	54780
#	77219
#	156616
#	255777
#	296335
#
# Disc length: 4642 seconds
#
# Revision: 4
# Processed by: cddbd v1.5.2PL0 Copyright (c) Steve Scherf et al.
# Submitted via: CDex 1.51
#
DISCID=44122006
DTITLE=Frumpy - Live
DYEAR=1973
DGENRE=Progressive Rock
TTITLE0=Keep On Going
TTITLE1=Backwater Blues
TTITLE2=Duty
TTITLE3=Release
TTITLE4=Take Care Of Illusion
TTITLE5=To My Mother
EXTD=F 700 YEAR: 1973
EXTT0=1972
EXTT1=1971
EXTT2=1971
EXTT3=1971
EXTT4=1971
EXTT5=1972
PLAYORDER=
